<svg height="512" viewBox="0 0 512 512" width="512" xmlns="http://www.w3.org/2000/svg"><g id="Two_Tone" data-name="Two Tone"><path d="m24 128h464a0 0 0 0 1 0 0v344a16 16 0 0 1 -16 16h-432a16 16 0 0 1 -16-16v-344a0 0 0 0 1 0 0z" fill="#90caf9"/><path d="m40 56h432a16 16 0 0 1 16 16v64a0 0 0 0 1 0 0h-464a0 0 0 0 1 0 0v-64a16 16 0 0 1 16-16z" fill="#2096f3"/><g fill="#1665c0"><rect height="64" rx="16" width="32" x="72" y="24"/><rect height="64" rx="16" width="32" x="296" y="24"/><rect height="64" rx="16" width="32" x="184" y="24"/><rect height="64" rx="16" width="32" x="408" y="24"/></g><path d="m143.715 373.37h56.568v45.254h-56.568z" fill="#ffd54f" transform="matrix(.707 -.707 .707 .707 -229.635 237.607)"/><path d="m167.147 282.058h169.704v67.881h-169.704z" fill="#ffd54f" transform="matrix(.707 -.707 .707 .707 -149.635 270.736)"/><path d="m327.998 223.999 15.999 16-15.999 32-32-32z" fill="#ffd54f"/><path d="m189.656 442.34-10.343-10.34 28.687-28.688 18.345 18.345 11.314-11.314-10.347-10.343 114.342-114.344a8 8 0 0 0 0-11.314l-3.922-3.923 13.421-26.842a8 8 0 0 0 -1.5-9.235l-2.341-2.342 50.345-50.343-11.314-11.314-50.343 50.343-2.344-2.343a8 8 0 0 0 -9.234-1.5l-26.843 13.421-3.922-3.922a8 8 0 0 0 -11.314 0l-114.343 114.343-10.342-10.342-11.314 11.314 18.341 18.343-28.685 28.684-10.343-10.343-11.314 11.314 64 64zm136.762-208.607 7.846 7.846-8.458 16.914-16.3-16.3zm-38.418 9.58 36.684 36.687-11.564 11.562-14.341-14.341-11.314 11.314 14.341 14.341-11.9 11.9-14.342-14.341-11.314 11.314 14.342 14.341-11.9 11.9-14.341-14.342-11.311 11.312 14.341 14.34-11.9 11.9-14.341-14.342-11.313 11.315 14.34 14.341-16.167 16.17-36.687-36.684zm-140.687 156.687 28.687-28.688 20.684 20.688-28.684 28.684z" fill="#0d47a0"/><path d="m472 48h-24v-8a24 24 0 0 0 -48 0v8h-64v-8a24 24 0 0 0 -48 0v8h-64v-8a24 24 0 0 0 -48 0v8h-64v-8a24 24 0 0 0 -48 0v8h-24a24.028 24.028 0 0 0 -24 24v400a24.028 24.028 0 0 0 24 24h432a24.028 24.028 0 0 0 24-24v-400a24.028 24.028 0 0 0 -24-24zm-56-8a8 8 0 0 1 16 0v32a8 8 0 0 1 -16 0zm-112 0a8 8 0 0 1 16 0v32a8 8 0 0 1 -16 0zm-112 0a8 8 0 0 1 16 0v32a8 8 0 0 1 -16 0zm-112 0a8 8 0 0 1 16 0v32a8 8 0 0 1 -16 0zm400 432a8.009 8.009 0 0 1 -8 8h-432a8.009 8.009 0 0 1 -8-8v-328h448zm0-344h-448v-56a8.009 8.009 0 0 1 8-8h24v8a24 24 0 0 0 48 0v-8h64v8a24 24 0 0 0 48 0v-8h64v8a24 24 0 0 0 48 0v-8h64v8a24 24 0 0 0 48 0v-8h24a8.009 8.009 0 0 1 8 8z" fill="#0d47a0"/></g></svg>