<svg id="Capa_1" enable-background="new 0 0 512 512" height="512" viewBox="0 0 512 512" width="512" xmlns="http://www.w3.org/2000/svg"><g><g><g><path d="m472.175 205.492c-11.12 0-20.923 8.777-26.737 22.137-3.197 7.347-10.314 12.208-18.326 12.208h-15.097c-3.028 0-5.573-2.239-5.997-5.238-.377-2.667-.828-5.31-1.346-7.929-1.075-5.432.151-11.064 3.459-15.504l.048-.065c8.816-11.833 1.771-28.789-12.834-30.892-5.495-.791-10.363-3.909-13.45-8.524-1.506-2.252-3.071-4.461-4.695-6.623-1.82-2.421-1.603-5.803.539-7.945l10.463-10.463c5.655-5.655 14.15-7.599 21.579-4.638 13.64 5.436 26.884 4.747 34.792-3.161 12.624-12.624 6.867-38.847-12.857-58.572-19.725-19.725-45.948-25.481-58.572-12.857-7.908 7.908-8.596 21.152-3.161 34.792 2.961 7.429 1.017 15.924-4.638 21.579l-10.464 10.463c-2.142 2.142-5.523 2.359-7.944.539-2.162-1.625-4.371-3.19-6.623-4.696-4.615-3.086-7.732-7.955-8.524-13.45-2.103-14.605-19.059-21.65-30.892-12.834l-.065.049c-4.44 3.308-10.072 4.534-15.504 3.459-2.619-.518-5.262-.969-7.929-1.346-2.999-.424-5.238-2.969-5.238-5.997v-15.095c0-8.012 4.862-15.129 12.208-18.326 13.36-5.814 22.137-15.617 22.137-26.737.001-17.853-22.612-32.326-50.507-32.326s-50.508 14.473-50.508 32.325c0 11.12 8.777 20.923 22.137 26.737 7.347 3.197 12.208 10.314 12.208 18.326v15.097c0 3.028-2.239 5.573-5.238 5.997-2.667.377-5.31.828-7.929 1.346-5.432 1.075-11.064-.151-15.504-3.459l-.065-.049c-11.833-8.816-28.789-1.771-30.892 12.834-.791 5.495-3.909 10.364-8.524 13.45-2.252 1.506-4.461 3.071-6.623 4.696-2.421 1.82-5.803 1.603-7.944-.539l-10.464-10.463c-5.655-5.655-7.599-14.15-4.638-21.579 5.436-13.64 4.747-26.884-3.161-34.792-12.624-12.624-38.847-6.867-58.572 12.857-19.725 19.725-25.481 45.948-12.857 58.572 7.908 7.908 21.152 8.596 34.792 3.161 7.429-2.961 15.924-1.017 21.579 4.638l10.463 10.463c2.142 2.142 2.359 5.523.539 7.945-1.625 2.162-3.19 4.371-4.695 6.623-3.086 4.615-7.955 7.732-13.45 8.524-14.605 2.103-21.65 19.059-12.834 30.892l.048.065c3.308 4.44 4.534 10.072 3.459 15.504-.518 2.619-.969 5.262-1.346 7.929-.424 2.999-2.969 5.238-5.997 5.238h-15.096c-8.012 0-15.129-4.862-18.326-12.208-5.814-13.36-15.617-22.137-26.737-22.137-17.852-.001-32.325 22.612-32.325 50.507s14.473 50.508 32.325 50.508c11.12 0 20.923-8.777 26.737-22.137 3.197-7.347 10.314-12.208 18.326-12.208h15.097c3.028 0 5.573 2.239 5.997 5.238.377 2.667.828 5.31 1.346 7.929 1.075 5.432-.151 11.064-3.459 15.504l-.048.065c-8.816 11.833-1.771 28.789 12.834 30.892 5.495.791 10.363 3.909 13.45 8.524 1.506 2.252 3.071 4.461 4.695 6.623 1.82 2.421 1.603 5.803-.539 7.945l-10.463 10.464c-5.655 5.655-14.15 7.599-21.579 4.638-13.64-5.436-26.884-4.747-34.792 3.161-12.624 12.624-6.867 38.847 12.857 58.572 19.725 19.725 45.948 25.481 58.572 12.857 7.908-7.908 8.596-21.152 3.161-34.792-2.961-7.429-1.017-15.924 4.638-21.579l10.464-10.464c2.142-2.142 5.523-2.359 7.944-.539 2.162 1.625 4.371 3.19 6.623 4.696 4.615 3.086 7.732 7.955 8.524 13.45 2.103 14.605 19.059 21.65 30.892 12.834l.065-.049c4.44-3.308 10.072-4.534 15.504-3.459 2.619.518 5.262.969 7.929 1.346 2.999.424 5.238 2.969 5.238 5.997v15.097c0 8.012-4.862 15.129-12.208 18.326-13.36 5.814-22.137 15.617-22.137 26.737 0 17.853 22.613 32.325 50.508 32.325s50.508-14.473 50.508-32.325c0-11.12-8.777-20.923-22.137-26.737-7.347-3.197-12.208-10.314-12.208-18.326v-15.097c0-3.028 2.239-5.573 5.238-5.997 2.667-.377 5.31-.828 7.929-1.346 5.432-1.075 11.064.151 15.504 3.459l.065.049c11.833 8.816 28.789 1.771 30.892-12.834.791-5.495 3.909-10.364 8.524-13.45 2.252-1.506 4.461-3.071 6.623-4.696 2.421-1.82 5.803-1.603 7.944.539l10.464 10.464c5.655 5.655 7.599 14.15 4.638 21.579-5.436 13.64-4.747 26.884 3.161 34.792 12.624 12.624 38.847 6.867 58.572-12.857 19.725-19.725 25.481-45.948 12.857-58.572-7.908-7.908-21.152-8.596-34.792-3.161-7.429 2.961-15.924 1.017-21.579-4.638l-10.463-10.464c-2.141-2.141-2.359-5.523-.539-7.944 1.607-2.139 3.159-4.322 4.653-6.547 3.093-4.607 7.956-7.723 13.447-8.525l.01-.001c14.641-2.139 21.687-19.141 12.85-31.009l-.015-.02c-3.304-4.437-4.532-10.061-3.467-15.489.014-.071.028-.143.042-.214 1.471-7.553 8.145-12.97 15.84-12.97h6.552c8.012 0 15.129 4.862 18.326 12.208 5.814 13.36 15.617 22.137 26.737 22.137 17.853 0 32.325-22.613 32.325-50.508s-14.475-50.509-32.327-50.509z" fill="#ac80dd"/></g><g><g><path d="m140.946 399.204c-27.789-1.178-54.379-6.987-79.004-16.704-4.165 13.795 2.678 33.552 18.342 49.217 19.725 19.725 45.948 25.481 58.572 12.857 7.908-7.908 8.596-21.152 3.161-34.792-1.366-3.428-1.676-7.081-1.071-10.578z" fill="#9d66d5"/></g><g><path d="m395.034 142.138c4.654-1.887 9.923-2.044 14.747-.121 13.64 5.436 26.884 4.747 34.792-3.161 12.624-12.624 6.867-38.847-12.857-58.572-17.612-17.612-40.396-24.075-54.063-16.274 9.853 24.339 15.898 50.625 17.381 78.128z" fill="#9d66d5"/></g><g><path d="m472.175 205.492c-11.12 0-20.923 8.777-26.737 22.137-3.197 7.346-10.314 12.208-18.326 12.208h-15.097c-3.028 0-5.573-2.239-5.997-5.238-.377-2.667-.828-5.31-1.346-7.929-1.075-5.432.151-11.064 3.459-15.504l.048-.065c8.816-11.833 1.771-28.789-12.834-30.892-.393-.057-.775-.151-1.162-.231-11.322 113.585-100.554 204.217-213.486 217.714 3.48 12.985 19.224 18.817 30.404 10.488l.065-.049c4.441-3.308 10.072-4.534 15.504-3.459 2.619.518 5.262.969 7.929 1.346 2.999.424 5.238 2.969 5.238 5.997v15.097c0 8.012-4.862 15.129-12.208 18.326-13.36 5.814-22.137 15.617-22.137 26.737 0 17.853 22.613 32.325 50.508 32.325s50.508-14.473 50.508-32.325c0-11.12-8.777-20.923-22.137-26.737-7.347-3.197-12.208-10.314-12.208-18.326v-15.097c0-3.028 2.239-5.573 5.238-5.997 2.667-.377 5.31-.828 7.929-1.346 5.432-1.075 11.064.151 15.504 3.459l.065.049c11.833 8.816 28.789 1.771 30.892-12.834.791-5.495 3.909-10.364 8.523-13.45 2.252-1.506 4.461-3.071 6.623-4.696 2.421-1.82 5.803-1.603 7.944.539l10.464 10.464c5.655 5.655 7.599 14.15 4.638 21.579-5.436 13.64-4.747 26.884 3.161 34.792 12.624 12.624 38.847 6.867 58.572-12.857 19.725-19.725 25.481-45.948 12.857-58.572-7.908-7.908-21.152-8.596-34.792-3.161-7.429 2.961-15.924 1.017-21.579-4.638l-10.463-10.464c-2.141-2.141-2.359-5.523-.539-7.944 1.607-2.139 3.159-4.322 4.653-6.547 3.093-4.607 7.956-7.723 13.447-8.525l.01-.001c14.641-2.139 21.687-19.141 12.85-31.009l-.015-.02c-3.304-4.437-4.532-10.061-3.466-15.489.014-.071.028-.143.042-.214 1.471-7.553 8.145-12.97 15.84-12.97h6.552c8.012 0 15.129 4.862 18.326 12.208 5.814 13.36 15.617 22.137 26.737 22.137 17.853 0 32.325-22.613 32.325-50.508s-14.474-50.508-32.326-50.508z" fill="#9d66d5"/></g></g><g><ellipse cx="256" cy="23.663" fill="#8659b9" rx="30.305" ry="16.163"/></g><g><ellipse cx="91.713" cy="91.713" fill="#8659b9" rx="30.305" ry="16.163" transform="matrix(.707 -.707 .707 .707 -37.989 91.713)"/></g><g><ellipse cx="23.663" cy="256" fill="#8659b9" rx="16.163" ry="30.305"/></g><g><ellipse cx="91.713" cy="420.287" fill="#8659b9" rx="16.163" ry="30.305" transform="matrix(.707 -.707 .707 .707 -270.326 187.95)"/></g><g><ellipse cx="256" cy="488.337" fill="#8659b9" rx="30.305" ry="16.163"/></g><g><ellipse cx="420.287" cy="420.287" fill="#8659b9" rx="30.305" ry="16.163" transform="matrix(.707 -.707 .707 .707 -174.089 420.287)"/></g><g><ellipse cx="488.337" cy="256" fill="#8659b9" rx="16.163" ry="30.305"/></g><g><ellipse cx="420.287" cy="91.713" fill="#8659b9" rx="16.163" ry="30.305" transform="matrix(.707 -.707 .707 .707 58.249 324.05)"/></g></g><g><g><path d="m230.323 175.254-62.553 99.786c-12.652 20.183 1.856 46.401 25.677 46.401h125.106c23.821 0 38.329-26.218 25.677-46.401l-62.553-99.787c-11.876-18.945-39.478-18.945-51.354.001z" fill="#ffe07d"/></g><g><path d="m344.23 275.04-35.443-56.539c.494 3.976.751 8.025.751 12.135 0 41.304-25.69 76.606-61.963 90.805h70.977c23.822 0 38.33-26.218 25.678-46.401z" fill="#f1cb86"/></g></g><g><path d="m316.842 403.73c-3.907 1.52-8.087.951-11.46-1.563-.024-.019-.078-.057-.124-.09-6.079-4.508-13.866-6.244-21.388-4.763-2.486.494-5.019.925-7.51 1.279-6.67.934-11.7 6.702-11.7 13.417v15.1c0 10.892 6.562 20.786 16.719 25.208 11.04 4.801 17.631 12.222 17.631 19.852 0 4.379-2.095 8.533-5.71 12.149-2.877-11.44-17.948-19.645-37.3-19.645s-34.422 8.204-37.3 19.645c-3.615-3.617-5.71-7.771-5.71-12.149 0-7.63 6.591-15.051 17.633-19.853 10.155-4.421 16.717-14.315 16.717-25.207v-15.1c0-6.715-5.03-12.483-11.684-13.415-2.508-.356-5.04-.788-7.536-1.283-7.532-1.485-15.345.267-21.384 4.769-.04.028-.079.057-.118.086-2.102 1.566-4.549 2.394-7.078 2.394-5.18 0-10.934-3.531-11.906-10.276-1.086-7.558-5.378-14.344-11.778-18.621-2.089-1.395-4.207-2.896-6.287-4.456-5.376-4.044-13.007-3.515-17.749 1.228l-10.477 10.467c-7.861 7.874-10.33 19.514-6.291 29.653 4.496 11.294 3.938 21.28-1.495 26.712-3.095 3.095-7.512 4.551-12.626 4.553 6.053-10.125 1.198-26.581-12.485-40.264-13.686-13.684-30.142-18.538-40.265-12.485.001-5.114 1.457-9.532 4.552-12.628 5.434-5.432 15.421-5.992 26.712-1.496 10.142 4.039 21.779 1.569 29.661-6.297l10.456-10.466c4.747-4.745 5.276-12.376 1.238-17.745-1.556-2.074-3.058-4.193-4.46-6.29-2.121-3.182-4.829-5.829-8.027-7.854-3.249-2.071-6.818-3.394-10.595-3.93-4.214-.606-7.706-3.317-9.34-7.251-1.634-3.933-1.09-8.319 1.455-11.732.02-.026.059-.081.093-.127 4.507-6.081 6.243-13.867 4.761-21.387-.491-2.471-.922-5.002-1.278-7.511-.937-6.669-6.704-11.698-13.418-11.698h-15.101c-10.892 0-20.785 6.562-25.208 16.719-4.801 11.04-12.222 17.63-19.852 17.63-4.378 0-8.532-2.095-12.149-5.71 11.44-2.877 19.644-17.947 19.644-37.3s-8.204-34.423-19.644-37.3c3.617-3.615 7.771-5.71 12.149-5.71 7.63 0 15.051 6.591 19.853 17.634 4.422 10.154 14.315 16.716 25.207 16.716h15.1c6.714 0 12.481-5.029 13.415-11.683.359-2.523.79-5.055 1.283-7.536 1.484-7.532-.267-15.344-4.763-21.376-.029-.042-.061-.084-.091-.125-1.566-2.102-2.395-4.55-2.395-7.079 0-5.18 3.531-10.933 10.276-11.906 7.557-1.085 14.344-5.378 18.618-11.775 1.407-2.105 2.909-4.225 4.458-6.29 4.045-5.376 3.516-13.008-1.228-17.749l-10.467-10.478c-7.875-7.86-19.516-10.328-29.653-6.29-11.294 4.497-21.281 3.937-26.712-1.495-3.098-3.098-4.553-7.52-4.553-12.638 2.887 1.728 6.28 2.584 9.987 2.584 9.291 0 20.494-5.275 30.276-15.058 13.684-13.682 18.539-30.139 12.486-40.263 5.114.001 9.531 1.457 12.626 4.552 5.433 5.433 5.991 15.418 1.495 26.711-4.039 10.14-1.57 21.78 6.298 29.661l10.467 10.457c4.745 4.746 12.378 5.275 17.742 1.238 2.09-1.566 4.208-3.068 6.293-4.46 3.18-2.12 5.826-4.828 7.828-7.99.576-.892 1.1-1.836 1.557-2.806 1.764-3.748.156-8.216-3.592-9.98-3.748-1.765-8.216-.157-9.98 3.591-.172.367-.368.721-.62 1.111-.909 1.436-2.092 2.645-3.519 3.596-1.986 1.326-3.994 2.737-5.987 4.208l-9.58-9.571c-3.626-3.632-4.792-8.933-2.971-13.506 6.783-17.038 4.98-33.063-4.823-42.868-15.791-15.792-46.18-10.146-69.188 12.851-22.995 23.006-28.639 53.396-12.849 69.186 9.803 9.803 25.828 11.608 42.868 4.824 4.573-1.822 9.874-.655 13.499 2.963l9.578 9.587c-1.459 1.977-2.871 3.985-4.209 5.985-1.913 2.864-4.931 4.782-8.284 5.263-13.407 1.935-23.139 13.186-23.139 26.753 0 5.783 1.855 11.33 5.324 15.985.03.043.061.085.092.127 2.012 2.697 2.782 6.185 2.117 9.556-.465 2.342-.882 4.732-1.242 7.131h-13.838c-4.92 0-9.416-3.024-11.452-7.701-7.256-16.687-19.819-26.649-33.607-26.649-22.336.003-39.831 25.484-39.831 58.013s17.495 58.01 39.83 58.01c13.788 0 26.352-9.962 33.606-26.646 2.037-4.68 6.533-7.704 11.453-7.704h13.842c.359 2.393.776 4.785 1.24 7.121.667 3.382-.104 6.87-2.115 9.567-.02.027-.059.081-.093.128-5.7 7.688-6.912 17.548-3.238 26.392 3.683 8.868 11.555 14.979 21.071 16.348 1.656.235 3.221.816 4.672 1.741 1.434.907 2.642 2.089 3.596 3.521 1.336 1.997 2.746 4.003 4.208 5.983l-9.571 9.58c-3.633 3.625-8.937 4.791-13.507 2.97-17.04-6.783-33.062-4.979-42.868 4.825-15.789 15.79-10.146 46.18 12.853 69.188 23.007 22.995 53.395 28.637 69.186 12.848 9.804-9.805 11.606-25.83 4.823-42.869-1.821-4.572-.655-9.873 2.964-13.498l9.587-9.578c1.989 1.468 3.999 2.881 5.985 4.208 2.863 1.914 4.781 4.932 5.264 8.285 1.934 13.408 13.185 23.139 26.753 23.139 5.783 0 11.33-1.855 15.993-5.33.04-.028.08-.058.119-.087 2.697-2.011 6.187-2.78 9.558-2.117 2.353.467 4.742.883 7.13 1.243v13.841c0 4.92-3.023 9.417-7.701 11.452-16.687 7.257-26.648 19.82-26.648 33.608 0 22.334 25.48 39.83 58.01 39.83s58.01-17.496 58.01-39.83c0-13.788-9.962-26.351-26.646-33.607-4.68-2.037-7.703-6.533-7.703-11.453v-13.841c2.381-.358 4.772-.775 7.12-1.241 3.384-.667 6.87.105 9.567 2.115.025.019.08.058.126.091 7.484 5.55 17.126 6.852 25.804 3.476 3.86-1.5 5.773-5.847 4.272-9.708-1.502-3.858-5.845-5.772-9.71-4.271zm-219.004-305.892c-10.476 10.476-20.473 11.777-22.251 10-.747-.747-1.045-3.216.067-6.87 1.514-4.976 5.135-10.582 9.934-15.38 8.021-8.021 15.763-10.664 19.748-10.664 1.218 0 2.085.247 2.502.663 1.778 1.778.475 11.776-10 22.251zm-74.175 135.357c2.514 0 8.662 7.991 8.662 22.805s-6.148 22.805-8.662 22.805c-2.515 0-8.663-7.992-8.663-22.805s6.148-22.805 8.663-22.805zm51.924 170.967s.001 0 0 0c.417-.417 1.284-.664 2.504-.664 3.984 0 11.727 2.643 19.748 10.664 10.475 10.475 11.777 20.473 10 22.25-1.781 1.78-11.778.472-22.252-10-4.798-4.798-8.419-10.404-9.933-15.38-1.112-3.654-.814-6.123-.067-6.87zm157.608 84.175c0-2.514 7.991-8.663 22.805-8.663s22.805 6.148 22.805 8.663-7.992 8.663-22.805 8.663-22.805-6.148-22.805-8.663z"/><path d="m472.17 197.99c-13.788 0-26.352 9.962-33.606 26.646-2.037 4.68-6.533 7.704-11.453 7.704h-13.842c-.359-2.393-.776-4.785-1.24-7.121-.667-3.382.104-6.87 2.115-9.567.02-.027.059-.081.093-.128 5.7-7.688 6.912-17.548 3.238-26.392-3.683-8.868-11.555-14.979-21.071-16.348-1.656-.235-3.221-.816-4.672-1.741-1.434-.907-2.642-2.089-3.596-3.521-1.336-1.997-2.746-4.003-4.208-5.983l9.571-9.58c3.633-3.626 8.936-4.792 13.507-2.97 17.04 6.782 33.063 4.979 42.868-4.825 15.789-15.79 10.146-46.18-12.853-69.188-23.008-22.996-53.396-28.638-69.186-12.848-9.804 9.805-11.606 25.83-4.823 42.869 1.821 4.572.655 9.873-2.964 13.498l-9.587 9.578c-1.989-1.468-3.999-2.881-5.985-4.208-2.863-1.914-4.781-4.932-5.264-8.285-1.934-13.408-13.185-23.139-26.753-23.139-5.783 0-11.33 1.855-15.993 5.33-.04.028-.08.058-.119.087-2.697 2.011-6.184 2.781-9.558 2.117-2.353-.467-4.742-.883-7.13-1.243v-13.842c0-4.92 3.023-9.417 7.701-11.452 16.687-7.257 26.648-19.82 26.648-33.608.002-22.334-25.479-39.83-58.008-39.83s-58.01 17.496-58.01 39.83c0 13.788 9.962 26.351 26.646 33.607 4.68 2.037 7.703 6.533 7.703 11.453v13.841c-2.381.358-4.772.775-7.12 1.241-3.384.668-6.871-.104-9.567-2.115-.026-.02-.082-.06-.129-.094-3.911-2.896-8.475-4.684-13.202-5.173-4.122-.423-7.806 2.568-8.231 6.688-.427 4.12 2.568 7.806 6.688 8.232 2.094.216 4.061.999 5.844 2.326.024.018.076.056.121.088 6.08 4.507 13.866 6.245 21.387 4.762 2.486-.494 5.019-.925 7.51-1.279 6.67-.934 11.7-6.702 11.7-13.417v-15.1c0-10.892-6.562-20.786-16.719-25.208-11.04-4.801-17.631-12.222-17.631-19.852 0-4.379 2.095-8.533 5.71-12.149 2.877 11.44 17.948 19.645 37.3 19.645s34.422-8.204 37.3-19.645c3.615 3.617 5.71 7.771 5.71 12.149 0 7.63-6.591 15.051-17.633 19.853-10.155 4.421-16.717 14.315-16.717 25.207v15.1c0 6.715 5.03 12.483 11.684 13.415 2.508.356 5.04.788 7.536 1.283 7.534 1.485 15.346-.267 21.384-4.769.04-.028.079-.057.118-.086 2.102-1.566 4.549-2.394 7.078-2.394 5.18 0 10.934 3.531 11.906 10.276 1.086 7.558 5.378 14.344 11.778 18.621 2.089 1.395 4.207 2.896 6.287 4.456 5.376 4.044 13.008 3.515 17.749-1.228l10.477-10.467c7.861-7.874 10.33-19.514 6.291-29.653-4.496-11.294-3.938-21.28 1.495-26.712 3.094-3.095 7.512-4.551 12.626-4.552-6.053 10.125-1.198 26.581 12.485 40.263 9.784 9.784 20.985 15.058 30.277 15.058 3.707 0 7.101-.856 9.988-2.584.001 5.119-1.455 9.541-4.552 12.639-5.435 5.433-15.421 5.992-26.712 1.496-10.144-4.04-21.78-1.571-29.661 6.297l-10.456 10.466c-4.747 4.745-5.276 12.376-1.238 17.745 1.556 2.074 3.058 4.193 4.46 6.29 2.121 3.182 4.829 5.829 8.027 7.854 3.249 2.071 6.818 3.394 10.595 3.93 4.214.606 7.706 3.317 9.34 7.251 1.634 3.933 1.09 8.319-1.455 11.732-.02.026-.059.081-.093.127-4.507 6.081-6.243 13.867-4.761 21.387.491 2.471.922 5.002 1.278 7.511.937 6.669 6.704 11.698 13.418 11.698h15.101c10.892 0 20.785-6.562 25.208-16.719 4.801-11.04 12.222-17.63 19.852-17.63 4.378 0 8.532 2.095 12.149 5.71-11.44 2.877-19.644 17.947-19.644 37.3s8.204 34.423 19.644 37.3c-3.617 3.615-7.771 5.71-12.149 5.71-7.63 0-15.051-6.591-19.853-17.634-4.422-10.154-14.315-16.716-25.207-16.716h-6.551c-11.295 0-21.053 8.006-23.201 19.036-.011.052-.021.105-.029.157-.009.044-.017.088-.024.132-1.452 7.486.301 15.254 4.815 21.328.043.058.087.115.133.173 2.465 3.409 2.976 7.75 1.359 11.65-1.64 3.956-5.147 6.685-9.383 7.301-.139.02-.277.044-.414.072-7.367 1.189-13.979 5.434-18.203 11.715-1.376 2.06-2.858 4.148-4.405 6.207-4.045 5.376-3.516 13.008 1.228 17.749l10.467 10.478c7.875 7.86 19.517 10.327 29.653 6.29 11.294-4.497 21.281-3.937 26.712 1.495 3.095 3.095 4.551 7.513 4.553 12.627-10.125-6.054-26.581-1.199-40.264 12.485-13.684 13.683-18.539 30.14-12.485 40.264-5.114-.001-9.531-1.458-12.627-4.554-5.433-5.433-5.991-15.418-1.495-26.711 4.039-10.14 1.57-21.78-6.298-29.661l-10.467-10.457c-4.744-4.746-12.377-5.275-17.742-1.238-2.09 1.566-4.208 3.068-6.358 4.504-.281.192-.561.385-.842.588-3.351 2.435-4.093 7.125-1.658 10.476 2.436 3.352 7.124 4.092 10.477 1.659.158-.116.318-.224.415-.291 1.986-1.326 3.994-2.737 5.987-4.208l9.58 9.571c3.626 3.632 4.792 8.933 2.971 13.506-6.783 17.038-4.98 33.063 4.823 42.868 6.036 6.036 14.205 8.94 23.279 8.94 14.665 0 31.695-7.584 45.909-21.791 22.995-23.006 28.639-53.396 12.849-69.186-9.804-9.803-25.828-11.608-42.868-4.824-4.576 1.82-9.875.655-13.499-2.963l-9.577-9.586c1.451-1.961 2.845-3.941 4.145-5.887 1.93-2.87 4.958-4.796 8.308-5.284.137-.02.273-.044.408-.071 9.338-1.496 17.049-7.58 20.68-16.341 3.683-8.885 2.451-18.792-3.295-26.502-.039-.052-.079-.104-.12-.156-1.935-2.688-2.669-6.11-2.016-9.42.009-.048.019-.095.026-.144.011-.056.021-.112.031-.168.809-3.962 4.356-6.83 8.464-6.83h6.551c4.92 0 9.416 3.024 11.452 7.701 7.256 16.687 19.819 26.649 33.607 26.649 22.335 0 39.83-25.481 39.83-58.01s-17.496-58.009-39.831-58.009zm-193.365-174.327c0 2.514-7.991 8.663-22.805 8.663s-22.805-6.148-22.805-8.663 7.992-8.663 22.805-8.663 22.805 6.148 22.805 8.663zm157.608 84.175c-1.776 1.778-11.774.477-22.252-10-10.475-10.475-11.777-20.473-10-22.25.417-.417 1.284-.664 2.503-.664 3.986 0 11.729 2.644 19.749 10.664 4.798 4.798 8.419 10.404 9.933 15.38 1.112 3.654.814 6.123.067 6.87zm-22.251 306.324c10.475-10.476 20.47-11.779 22.251-10 .747.747 1.045 3.216-.067 6.87-1.514 4.976-5.135 10.582-9.934 15.38-10.472 10.471-20.47 11.776-22.25 10-1.778-1.777-.475-11.775 10-22.25zm74.175-135.357c-2.514 0-8.662-7.991-8.662-22.805s6.148-22.805 8.662-22.805c2.515 0 8.663 7.991 8.663 22.805s-6.148 22.805-8.663 22.805z"/><path d="m183.565 235.717-22.15 35.339c-7.411 11.823-7.801 26.171-1.044 38.381 6.758 12.211 19.124 19.502 33.079 19.502h125.1c13.955 0 26.321-7.291 33.079-19.502 6.757-12.21 6.367-26.559-1.044-38.381l-62.552-99.792c-6.96-11.095-18.935-17.72-32.033-17.72s-25.073 6.625-32.035 17.722l-21.811 34.8c-2.199 3.51-1.138 8.138 2.372 10.338 3.51 2.199 8.14 1.139 10.339-2.372l21.809-34.797c4.198-6.694 11.424-10.69 19.326-10.69s15.128 3.997 19.325 10.688l62.551 99.79c4.47 7.131 4.705 15.786.629 23.152-4.077 7.367-11.537 11.765-19.955 11.765h-125.1c-8.418 0-15.878-4.398-19.955-11.765-4.076-7.366-3.841-16.021.629-23.152l22.15-35.34c2.2-3.509 1.139-8.138-2.371-10.338-3.507-2.198-8.136-1.138-10.338 2.372z"/><circle cx="256" cy="287.697" r="8.793"/><path d="m256.129 262.427c4.143 0 7.5-3.358 7.5-7.5v-52.893c0-4.142-3.357-7.5-7.5-7.5s-7.5 3.358-7.5 7.5v52.893c0 4.142 3.357 7.5 7.5 7.5z"/></g></g></svg>