<svg height="512" viewBox="0 0 64 64" width="512" xmlns="http://www.w3.org/2000/svg"><g id="Fill_Outline" data-name="Fill Outline"><g id="Color"><g><g><path d="m12 24h12a4 4 0 0 1 4 4v10a0 0 0 0 1 0 0h-20a0 0 0 0 1 0 0v-10a4 4 0 0 1 4-4z" fill="#f8664f"/><path d="m22 35a8 8 0 0 1 -8-8v-1.294a6.947 6.947 0 0 0 6.877-1.706h-8.877a4 4 0 0 0 -4 4v10h20v-3z" fill="#cc5144"/><path d="m15 20h6a0 0 0 0 1 0 0v5a3 3 0 0 1 -3 3 3 3 0 0 1 -3-3v-5a0 0 0 0 1 0 0z" fill="#fcbc04"/><path d="m8 30h4a0 0 0 0 1 0 0v10a2 2 0 0 1 -2 2 2 2 0 0 1 -2-2v-10a0 0 0 0 1 0 0z" fill="#fcbc04"/><path d="m24 30h4a0 0 0 0 1 0 0v10a2 2 0 0 1 -2 2 2 2 0 0 1 -2-2v-10a0 0 0 0 1 0 0z" fill="#f9e109"/><path d="m12 38h12v10h-12z" fill="#84d2f4"/><path d="m13 48h5v9h-5z" fill="#fcbc04"/><path d="m13 57h5a0 0 0 0 1 0 0v4a0 0 0 0 1 0 0h-9a0 0 0 0 1 0 0 4 4 0 0 1 4-4z" fill="#57b7eb"/><path d="m18 48h5v9h-5z" fill="#f9e109" transform="matrix(-1 0 0 -1 41 105)"/><path d="m18 57h9a0 0 0 0 1 0 0v4a0 0 0 0 1 0 0h-5a4 4 0 0 1 -4-4 0 0 0 0 1 0 0z" fill="#84d2f4" transform="matrix(-1 0 0 -1 45 118)"/><path d="m15 25a2.966 2.966 0 0 0 .167.946 6.917 6.917 0 0 0 5.833-2.052v-3.894h-6z" fill="#e59730"/><path d="m11 10h14a0 0 0 0 1 0 0v7a7 7 0 0 1 -7 7 7 7 0 0 1 -7-7v-7a0 0 0 0 1 0 0z" fill="#f9e109"/><path d="m18 3a7 7 0 0 1 7 7 0 0 0 0 1 0 0h-14a0 0 0 0 1 0 0 7 7 0 0 1 7-7z" fill="#84d2f4"/><path d="m21 22a7 7 0 0 1 -7-7 2 2 0 0 1 2-2h9v-3h-14v7a6.993 6.993 0 0 0 12.244 4.626 6.972 6.972 0 0 1 -2.244.374z" fill="#fcbc04"/><path d="m21 8a6.994 6.994 0 0 1 -6.379-4.129 7 7 0 0 0 -3.621 6.129h14a6.99 6.99 0 0 0 -.294-2z" fill="#57b7eb"/><path d="m24 30a0 0 0 0 1 0 0v6a0 0 0 0 1 0 0h-2a0 0 0 0 1 0 0v-4a2 2 0 0 1 2-2z" fill="#cc5144"/><path d="m26 38v-3a3.982 3.982 0 0 1 2-3.445v-1.555h-4v10a2 2 0 0 0 4 0 2 2 0 0 1 -2-2z" fill="#fcbc04"/><path d="m10 38v-3a3.982 3.982 0 0 0 -2-3.445v-1.555h4v10a2 2 0 0 1 -4 0 2 2 0 0 0 2-2z" fill="#e59730"/><path d="m23 50v-2h-5v9h5v-1a2 2 0 0 1 -2-2v-2a2 2 0 0 1 2-2z" fill="#fcbc04"/><path d="m13 50v-2h5v9h-5v-1a2 2 0 0 0 2-2v-2a2 2 0 0 0 -2-2z" fill="#e59730"/><path d="m24 59a3.982 3.982 0 0 1 -3.445-2h-2.555v4h9a3.955 3.955 0 0 0 -.555-2z" fill="#57b7eb"/><path d="m12 59a3.982 3.982 0 0 0 3.445-2h2.555v4h-9a3.955 3.955 0 0 1 .555-2z" fill="#4891d3"/><path d="m12 38v10h8v-3a3 3 0 0 1 3-3h1v-4z" fill="#57b7eb"/><path d="m18 43a0 0 0 0 1 0 0v5a0 0 0 0 1 0 0h-2a0 0 0 0 1 0 0v-3a2 2 0 0 1 2-2z" fill="#4891d3"/></g><g><path d="m45 3a11 11 0 0 1 11 11 7 7 0 0 1 -7 7h-8a7 7 0 0 1 -7-7 11 11 0 0 1 11-11z" fill="#84d2f4"/><path d="m54.759 17.012a3.793 3.793 0 0 1 -.759-2.277 3.8 3.8 0 0 0 -2.595-3.6 6.54 6.54 0 0 1 -4.276-4.617 5.43 5.43 0 0 1 .213-3.262 10.984 10.984 0 0 0 -13.342 10.744 7 7 0 0 0 7 7h8a6.993 6.993 0 0 0 6.087-3.551z" fill="#57b7eb"/><path d="m45 52h5v5h-5z" fill="#f9e109" transform="matrix(-1 0 0 -1 95 109)"/><path d="m48 57v-1a2 2 0 0 1 2-2v-2h-5v5z" fill="#fcbc04"/><path d="m40 52h5v5h-5z" fill="#fcbc04"/><path d="m42 57v-1a2 2 0 0 0 -2-2v-2h5v5z" fill="#e59730"/><path d="m39 24h12a4 4 0 0 1 4 4v10a0 0 0 0 1 0 0h-20a0 0 0 0 1 0 0v-10a4 4 0 0 1 4-4z" fill="#f8664f"/><path d="m49 35a8 8 0 0 1 -8-8v-1.294a6.947 6.947 0 0 0 6.877-1.706h-8.877a4 4 0 0 0 -4 4v10h20v-3z" fill="#cc5144"/><path d="m42 20h6a0 0 0 0 1 0 0v5a3 3 0 0 1 -3 3 3 3 0 0 1 -3-3v-5a0 0 0 0 1 0 0z" fill="#fcbc04"/><path d="m35 30h4a0 0 0 0 1 0 0v10a2 2 0 0 1 -2 2 2 2 0 0 1 -2-2v-10a0 0 0 0 1 0 0z" fill="#fcbc04"/><path d="m51 30h4a0 0 0 0 1 0 0v10a2 2 0 0 1 -2 2 2 2 0 0 1 -2-2v-10a0 0 0 0 1 0 0z" fill="#f9e109"/><path d="m40 57h5a0 0 0 0 1 0 0v4a0 0 0 0 1 0 0h-9a0 0 0 0 1 0 0 4 4 0 0 1 4-4z" fill="#57b7eb"/><path d="m45 57h9a0 0 0 0 1 0 0v4a0 0 0 0 1 0 0h-5a4 4 0 0 1 -4-4 0 0 0 0 1 0 0z" fill="#84d2f4" transform="matrix(-1 0 0 -1 99 118)"/><path d="m42 25a2.966 2.966 0 0 0 .167.946 6.917 6.917 0 0 0 5.833-2.052v-3.894h-6z" fill="#e59730"/><path d="m51 30a0 0 0 0 1 0 0v6a0 0 0 0 1 0 0h-2a0 0 0 0 1 0 0v-4a2 2 0 0 1 2-2z" fill="#cc5144"/><path d="m53 38v-3a3.982 3.982 0 0 1 2-3.445v-1.555h-4v10a2 2 0 0 0 4 0 2 2 0 0 1 -2-2z" fill="#fcbc04"/><path d="m37 38v-3a3.982 3.982 0 0 0 -2-3.445v-1.555h4v10a2 2 0 0 1 -4 0 2 2 0 0 0 2-2z" fill="#e59730"/><path d="m51 59a3.982 3.982 0 0 1 -3.445-2h-2.555v4h9a3.955 3.955 0 0 0 -.555-2z" fill="#57b7eb"/><path d="m39 59a3.982 3.982 0 0 0 3.445-2h2.555v4h-9a3.955 3.955 0 0 1 .555-2z" fill="#4891d3"/><path d="m45 24a7 7 0 0 1 -7-7v-5h.528a7.237 7.237 0 0 0 6.472-4 9.142 9.142 0 0 0 6.385 4.877l.615.123v4a7 7 0 0 1 -7 7z" fill="#f9e109"/><path d="m55 53h-20l.047-.083a29.991 29.991 0 0 0 3.953-14.884v-.033h12a30.005 30.005 0 0 0 3.529 14.118z" fill="#84d2f4"/><path d="m47.122 50.163a6 6 0 0 1 .558-7.843l3.35-3.35c-.011-.323-.03-.646-.03-.97h-12v.033a29.991 29.991 0 0 1 -3.953 14.884l-.047.083h15.536a9.587 9.587 0 0 1 -3.414-2.837z" fill="#57b7eb"/><path d="m51.385 12.877a9.142 9.142 0 0 1 -6.385-4.877 7.237 7.237 0 0 1 -6.472 4h-.528v5a6.989 6.989 0 0 0 10.672 5.951c-.222.022-.444.049-.672.049a7 7 0 0 1 -7-7v-1.453a7.223 7.223 0 0 0 4-3.547 9.142 9.142 0 0 0 6.385 4.877l.615.123v-3z" fill="#fcbc04"/></g></g></g><g id="Outline_copy" data-name="Outline copy"><g fill="#39519d"><path d="m24 23h-.726a7.976 7.976 0 0 0 2.726-6v-7a8 8 0 0 0 -16 0 1 1 0 0 0 1 1h13v6a6 6 0 0 1 -12 0v-3a1 1 0 0 0 -2 0v3a7.976 7.976 0 0 0 2.726 6h-.726a5.006 5.006 0 0 0 -5 5v2a1 1 0 0 0 1 1h3v9a1 1 0 0 1 -2 0v-6a1 1 0 0 0 -2 0v6a3 3 0 0 0 3 3 2.966 2.966 0 0 0 1-.184v5.184a1 1 0 0 0 1 1v7.1a5.009 5.009 0 0 0 -4 4.9 1 1 0 0 0 1 1h18a1 1 0 0 0 1-1 5.009 5.009 0 0 0 -4-4.9v-7.1a1 1 0 0 0 1-1v-3a1 1 0 0 0 -2 0v2h-4v-3a1 1 0 0 0 -2 0v3h-4v-8h10v1a3 3 0 0 0 6 0v-12a5.006 5.006 0 0 0 -5-5zm-11.917-14a6 6 0 0 1 11.834 0zm7.917 15.737v.263a2 2 0 0 1 -4 0v-.263a7.736 7.736 0 0 0 4 0zm-3 31.263h-3v-7h3zm-4 2h4v2h-6.829a3.006 3.006 0 0 1 2.829-2zm12.829 2h-6.829v-2h4a3.006 3.006 0 0 1 2.829 2zm-3.829-4h-3v-7h3zm-9-19v-7a1 1 0 0 0 -1-1h-3v-1a3 3 0 0 1 3-3h2a4 4 0 0 0 8 0h2a3 3 0 0 1 3 3v1h-3a1 1 0 0 0 -1 1v7zm14 3a1 1 0 0 1 -2 0v-9h2z"/><circle cx="21" cy="14" r="1"/><circle cx="15" cy="14" r="1"/><path d="m16.586 18.414a1 1 0 0 0 -1.414 1.414 4 4 0 0 0 5.656 0 1 1 0 0 0 -1.414-1.414 2.047 2.047 0 0 1 -2.828 0z"/><path d="m51 23h-.726a8.079 8.079 0 0 0 1.3-1.455 8.017 8.017 0 0 0 5.426-7.545 11.989 11.989 0 0 0 -18.492-10.083 1 1 0 0 0 1.084 1.683 9.989 9.989 0 0 1 15.408 8.4 6 6 0 0 1 -2.157 4.575 8.02 8.02 0 0 0 .157-1.575 1 1 0 0 0 -2 0 6 6 0 0 1 -12 0v-4.013a8.173 8.173 0 0 0 5.979-3.1 10.066 10.066 0 0 0 6.21 3.969l.615.123a1 1 0 1 0 .392-1.96l-.614-.124a8.088 8.088 0 0 1 -5.682-4.342 1.042 1.042 0 0 0 -1.79 0 6.2 6.2 0 0 1 -5.582 3.447h-.528a1 1 0 0 0 -1 1v5a8.02 8.02 0 0 0 .157 1.575 6 6 0 0 1 -2.157-4.575 9.917 9.917 0 0 1 1.944-5.9 1 1 0 0 0 -1.611-1.19 11.9 11.9 0 0 0 -2.333 7.09 8.017 8.017 0 0 0 5.424 7.545 8.079 8.079 0 0 0 1.302 1.455h-.726a5.006 5.006 0 0 0 -5 5v2a1 1 0 0 0 1 1h3v7.033c0 .8-.046 1.607-.113 2.406a.993.993 0 0 1 -1.887-.439v-6a1 1 0 0 0 -2 0v6a2.985 2.985 0 0 0 3.566 2.943 29.027 29.027 0 0 1 -3.387 9.478l-.05.087a1 1 0 0 0 .871 1.492h4v2.1a5.009 5.009 0 0 0 -4 4.9 1 1 0 0 0 1 1h18a1 1 0 0 0 1-1 5.009 5.009 0 0 0 -4-4.9v-2.1h4a1 1 0 0 0 .882-1.471l-.47-.882a29.17 29.17 0 0 1 -1.364-2.965 1 1 0 0 0 -1.86.737c.358.9.745 1.767 1.155 2.581h-1.929l-.586-.586a6.2 6.2 0 0 1 -1.828-4.414 1 1 0 0 0 -2 0 8.175 8.175 0 0 0 1.7 5h-6.7a10.063 10.063 0 0 0 2-6 1 1 0 0 0 -2 0 8.051 8.051 0 0 1 -1.6 4.8l-.9 1.2h-2.825a31.066 31.066 0 0 0 3.193-11.168 2.973 2.973 0 0 0 .132-.832v-1h10v1a2.96 2.96 0 0 0 .136.846 31 31 0 0 0 .782 4.638 1 1 0 0 0 1.941-.484c-.169-.68-.306-1.368-.425-2.058a2.985 2.985 0 0 0 3.566-2.942v-12a5.006 5.006 0 0 0 -5-5zm-11 35h4v2h-6.829a3.006 3.006 0 0 1 2.829-2zm12.829 2h-6.829v-2h4a3.006 3.006 0 0 1 2.829 2zm-3.829-4h-3v-2h3zm-5-2v2h-3v-2zm3-29.263v.263a2 2 0 0 1 -4 0v-.263a7.736 7.736 0 0 0 4 0zm-7 12.263v-7a1 1 0 0 0 -1-1h-3v-1a3 3 0 0 1 3-3h2a4 4 0 0 0 8 0h2a3 3 0 0 1 3 3v1h-3a1 1 0 0 0 -1 1v7zm14 3a.993.993 0 0 1 -1.884.445c-.069-.814-.116-1.629-.116-2.445v-7h2z"/><circle cx="48" cy="14" r="1"/><circle cx="42" cy="14" r="1"/><path d="m45 21a3.971 3.971 0 0 0 2.828-1.172 1 1 0 0 0 -1.414-1.414 2.047 2.047 0 0 1 -2.828 0 1 1 0 0 0 -1.414 1.414 3.971 3.971 0 0 0 2.828 1.172z"/></g></g></g></svg>