<svg enable-background="new 0 0 512 512" height="512" viewBox="0 0 512 512" width="512" xmlns="http://www.w3.org/2000/svg"><g id="BULINE"><circle id="XMLID_1070_" cx="256" cy="256" fill="#4ace99" r="256"/></g><g id="Icons"><g id="XMLID_2237_"><g id="XMLID_2244_"><path id="XMLID_2250_" d="m389.363 196.24c0 29.807-15.107 60.148-28.042 86.2-16.801 33.839-36.475 66.25-57.031 97.919-9.257 14.261-18.747 28.372-28.443 42.338-4.597 6.622-9.287 16.812-17.256 19.773-8.392 3.118-15.149-1.42-19.949-7.961-16.853-22.969-32.43-47.056-47.598-71.155-18.537-29.451-36.252-59.599-51.091-91.106-11.371-24.144-23.48-51.224-23.082-78.463.785-53.723 34.726-103.076 84.3-123.558 88.265-36.465 188.192 30.634 188.192 126.013z" fill="#4f4f74"/><path id="XMLID_2249_" d="m281.043 415.166c-5.729 8.34-10.858 15.67-15.122 21.664-6.268 8.828-19.369 8.828-25.637 0-33.918-47.764-123.434-179.598-123.434-240.591 0-61.19 40.34-112.961 95.87-130.173-33.19 24.849-54.665 64.487-54.665 109.142-.001 60.737 88.728 191.672 122.988 239.958z" fill="#3e436d"/><circle id="XMLID_2248_" cx="253.105" cy="197.484" fill="#fff" r="84.532"/><path id="XMLID_2247_" d="m270.63 280.192c-5.656 1.196-11.518 1.821-17.525 1.821-46.685 0-84.532-37.84-84.532-84.532 0-46.685 37.847-84.532 84.532-84.532 6.007 0 11.869.625 17.525 1.821-38.273 8.068-67.007 42.032-67.007 82.711 0 40.685 28.734 74.642 67.007 82.711z" fill="#d1d1d1"/><ellipse id="XMLID_2246_" cx="311.334" cy="322.217" fill="#6e6e99" rx="18.662" ry="12.654" transform="matrix(.488 -.873 .873 .488 -121.829 436.769)"/><ellipse id="XMLID_2245_" cx="295.093" cy="348.359" fill="#8787b2" rx="21.797" ry="14.78" transform="matrix(.488 -.873 .873 .488 -152.966 435.979)"/></g><g id="XMLID_2238_"><path id="XMLID_2239_" d="m242.661 238.017c-3.227 0-6.464-1.053-9.16-3.19l-60.143-47.639c-6.39-5.061-7.467-14.343-2.405-20.732 5.06-6.388 14.344-7.467 20.732-2.405l49.984 39.592 122.268-118.872c5.846-5.682 15.188-5.55 20.87.294 5.681 5.844 5.55 15.188-.294 20.869l-131.562 127.907c-2.849 2.769-6.563 4.176-10.29 4.176z" fill="#00b764"/></g></g></g></svg>