<svg id="Capa_1" enable-background="new 0 0 512 512" height="512" viewBox="0 0 512 512" width="512" xmlns="http://www.w3.org/2000/svg"><g><g><circle cx="238.875" cy="253.844" fill="#f9f6f9" r="171.121"/><path d="m271.978 421.762c-10.704 2.104-21.778 3.202-33.103 3.202-94.505 0-171.121-76.616-171.121-171.121 0-94.513 76.616-171.121 171.121-171.121 11.325 0 22.398 1.098 33.103 3.202-78.67 15.415-138.027 84.731-138.027 167.919 0 83.181 59.357 152.504 138.027 167.919z" fill="#dddaec"/><g><g fill="#9dc6fb"><path d="m238.875 311.04c-13.888 0-25.148-11.259-25.148-25.148v-23.577c0-13.888 11.259-25.148 25.148-25.148 8.49 0 16.393-3.398 22.252-9.57 5.853-6.165 8.834-14.257 8.391-22.784-.828-15.947-14.004-28.691-29.998-29.013-15.559-.327-28.894 11.023-31.035 26.368-.197 1.414-.297 2.864-.297 4.312 0 13.888-11.259 25.148-25.148 25.148-13.888 0-25.148-11.259-25.148-25.148 0-3.767.263-7.557.78-11.265 5.584-40.014 39.91-69.717 80.206-69.717.551 0 1.101.005 1.654.017 42.23.85 77.024 34.537 79.212 76.692 1.164 22.438-6.7 43.754-22.145 60.021-9.303 9.799-20.914 17.044-33.578 21.198v2.466c.001 13.889-11.258 25.148-25.146 25.148z"/><path d="m238.875 382.189c-13.888 0-25.148-11.259-25.148-25.148v-.661c0-13.888 11.259-25.148 25.148-25.148s25.148 11.259 25.148 25.148v.661c-.001 13.889-11.26 25.148-25.148 25.148z"/></g><g fill="#80b4fb"><path d="m175.689 195.216c-.52 3.713-.78 7.502-.78 11.266 0 10.897 6.932 20.185 16.639 23.664-2.657.964-5.524 1.484-8.508 1.484-13.89 0-25.148-11.258-25.148-25.148 0-3.764.26-7.553.78-11.266 5.583-40.01 39.909-69.718 80.204-69.718.553 0 1.107.008 1.66.017 2.305.05 4.594.193 6.848.436-36.53 3.831-66.506 32.105-71.695 69.265z"/><path d="m278.14 227.598c-5.859 6.178-13.756 9.573-22.247 9.573-13.89 0-25.148 11.258-25.148 25.148v23.58c0 10.897 6.941 20.185 16.639 23.672-2.657.956-5.524 1.475-8.508 1.475-13.89 0-25.148-11.266-25.148-25.148v-23.58c0-13.89 11.258-25.148 25.148-25.148 8.492 0 16.388-3.395 22.247-9.573 5.86-6.161 8.835-14.25 8.391-22.784-.679-13.236-9.883-24.267-22.147-27.813 2.917-.847 5.994-1.266 9.17-1.199 15.994.327 29.171 13.068 29.993 29.012.445 8.534-2.53 16.623-8.39 22.785z"/><path d="m247.385 380.713c-2.657.956-5.524 1.475-8.508 1.475-13.89 0-25.148-11.258-25.148-25.148v-.654c0-13.89 11.258-25.148 25.148-25.148 2.984 0 5.851.52 8.508 1.475-9.699 3.487-16.639 12.767-16.639 23.672v.654c-.001 10.907 6.94 20.187 16.639 23.674z"/></g></g><g><path d="m351.401 8.315h110.59c23.477 0 42.508 19.032 42.508 42.508v55.198c0 23.477-19.032 42.508-42.508 42.508h-55.572l-26.602 30.398c-7.891 9.016-22.741 3.436-22.741-8.546v-21.851h-5.674c-23.477 0-42.508-19.032-42.508-42.508v-55.199c-.001-23.477 19.031-42.508 42.507-42.508z" fill="#e27a66"/><path d="m379.311 179.478c-8.006 8.223-22.234 2.631-22.234-9.095v-21.854h-5.676c-23.475 0-42.508-19.033-42.508-42.508v-55.2c0-23.475 19.033-42.508 42.508-42.508h18.558c-23.48 0-42.508 19.033-42.508 42.508v55.2c0 23.474 19.028 42.508 42.508 42.508h5.676v21.854c0 3.738 1.447 6.855 3.676 9.095z" fill="#dd636e"/></g><path d="m160.599 503.682h-110.591c-23.477 0-42.508-19.032-42.508-42.508v-55.198c0-23.477 19.032-42.508 42.508-42.508h55.572l26.602-30.398c7.891-9.016 22.741-3.436 22.741 8.546v21.852h5.674c23.477 0 42.508 19.032 42.508 42.508v55.198c.002 23.476-19.03 42.508-42.506 42.508z" fill="#b3e59f"/><path d="m70.209 363.467h-20.201c-23.474 0-42.508 19.033-42.508 42.508v55.2c0 23.475 19.033 42.508 42.508 42.508h20.201c-23.475 0-42.508-19.033-42.508-42.508v-55.2c0-23.474 19.033-42.508 42.508-42.508z" fill="#95d6a4"/></g><g><path d="m303.04 267.392c16.875-17.773 25.468-41.062 24.196-65.574-2.391-46.062-40.409-82.873-86.543-83.801-.607-.013-1.209-.019-1.813-.019-21.312 0-41.924 7.703-58.037 21.689-16.137 14.008-26.648 33.36-29.598 54.492-.565 4.055-.852 8.193-.852 12.3 0 18.002 14.646 32.647 32.648 32.647s32.647-14.646 32.647-32.647c0-1.104.076-2.206.225-3.275 1.618-11.595 11.694-20.141 23.456-19.906 12.081.243 22.034 9.864 22.659 21.904.335 6.452-1.917 12.572-6.34 17.231-4.429 4.665-10.4 7.234-16.813 7.234-18.002 0-32.647 14.646-32.647 32.648v23.577c0 18.002 14.646 32.648 32.647 32.648 17.046 0 31.083-13.132 32.525-29.811 11.967-4.742 22.823-12.05 31.64-21.337zm-41.355 8.908c-3.08 1.01-5.163 3.885-5.163 7.126v2.466c0 9.731-7.917 17.648-17.647 17.648s-17.647-7.917-17.647-17.648v-23.577c0-9.731 7.917-17.648 17.647-17.648 10.567 0 20.401-4.228 27.691-11.906 7.284-7.672 10.992-17.736 10.441-28.337-1.03-19.855-17.431-35.722-37.331-36.123-.272-.005-.542-.008-.814-.008-18.997 0-35.175 13.986-37.807 32.838-.245 1.754-.369 3.553-.369 5.349 0 9.731-7.917 17.647-17.647 17.647s-17.648-7.917-17.648-17.647c0-3.417.238-6.858.708-10.228 5.032-36.061 36.32-63.254 72.778-63.254.499 0 .996.005 1.504.016 38.317.771 69.888 31.335 71.874 69.582 1.056 20.363-6.08 39.708-20.094 54.468-8.334 8.779-18.872 15.43-30.476 19.236z"/><path d="m238.875 323.733c-18.002 0-32.647 14.646-32.647 32.647v.661c0 18.002 14.646 32.647 32.647 32.647s32.647-14.646 32.647-32.647v-.661c0-18.001-14.646-32.647-32.647-32.647zm17.647 33.308c0 9.731-7.917 17.647-17.647 17.647s-17.647-7.917-17.647-17.647v-.661c0-9.731 7.917-17.647 17.647-17.647s17.647 7.917 17.647 17.647z"/><path d="m461.99.818h-110.59c-27.576 0-50.01 22.43-50.01 50v35.662c-19.93-7.469-40.903-11.262-62.51-11.262-98.497 0-178.63 80.133-178.63 178.63 0 8.583.611 17.185 1.816 25.567.538 3.738 3.745 6.434 7.415 6.434.355 0 .715-.025 1.077-.077 4.1-.59 6.946-4.392 6.356-8.491-1.104-7.678-1.664-15.562-1.664-23.433 0-90.226 73.404-163.63 163.63-163.63 21.707 0 42.711 4.165 62.51 12.375v3.424c0 26.966 21.454 49.016 48.19 49.977v14.383c0 8.617 5.213 16.143 13.28 19.173 2.389.897 4.849 1.333 7.276 1.333 5.763 0 11.339-2.457 15.329-7.017l.87-.994c10.595 22.014 16.158 46.336 16.158 70.972 0 90.218-73.398 163.616-163.616 163.616-9.487 0-18.968-.832-28.269-2.449v-9.037c0-26.964-21.45-49.012-48.182-49.976v-14.384c0-8.614-5.21-16.138-13.274-19.168-8.062-3.031-16.939-.8-22.612 5.683l-19.641 22.444c-10.222-13.905-18.121-29.206-23.513-45.607-1.294-3.936-5.533-6.076-9.467-4.783-3.935 1.294-6.076 5.532-4.783 9.467 5.442 16.552 13.222 32.075 23.176 46.316h-42.304c-27.574.001-50.008 22.434-50.008 50.009v55.198c0 27.575 22.434 50.008 50.008 50.008h110.59c27.575 0 50.008-22.434 50.008-50.008v-30.944c9.322 1.481 18.794 2.232 28.269 2.232 98.489 0 178.616-80.126 178.616-178.616 0-29.021-7.078-57.65-20.502-83.15l12.834-14.667h37.167c4.142 0 7.5-3.358 7.5-7.5s-3.358-7.5-7.5-7.5h-40.57c-2.163 0-4.22.934-5.645 2.561l-26.601 30.401c-2.314 2.646-5.208 1.831-6.04 1.519-.834-.313-3.555-1.609-3.555-5.131v-21.85c0-4.142-3.358-7.5-7.5-7.5h-5.68c-19.305 0-35.01-15.705-35.01-35.01v-55.2c0-19.299 15.705-35 35.01-35h110.59c19.305 0 35.01 15.701 35.01 35v55.2c0 14.58-9.181 27.776-22.845 32.837-3.884 1.438-5.867 5.754-4.428 9.638 1.438 3.884 5.751 5.868 9.638 4.428 19.52-7.229 32.635-26.079 32.635-46.903v-55.2c.001-27.57-22.433-50-50.009-50zm-266.383 460.356c0 19.304-15.705 35.008-35.008 35.008h-110.591c-19.303 0-35.008-15.705-35.008-35.008v-55.198c0-19.304 15.705-35.009 35.008-35.009h55.573c2.163 0 4.22-.934 5.644-2.561l26.602-30.398c2.317-2.648 5.215-1.833 6.047-1.52.833.313 3.55 1.607 3.55 5.126v21.852c0 4.142 3.358 7.5 7.5 7.5h5.674c19.304 0 35.008 15.705 35.008 35.009v55.199z"/><path d="m156.518 408.647h-102.429c-4.142 0-7.5 3.358-7.5 7.5s3.358 7.5 7.5 7.5h102.429c4.142 0 7.5-3.358 7.5-7.5s-3.358-7.5-7.5-7.5z"/><path d="m127.866 439.86h-73.777c-4.142 0-7.5 3.358-7.5 7.5s3.358 7.5 7.5 7.5h73.777c4.142 0 7.5-3.358 7.5-7.5s-3.358-7.5-7.5-7.5z"/><path d="m457.911 51.01h-102.429c-4.142 0-7.5 3.358-7.5 7.5s3.358 7.5 7.5 7.5h102.429c4.142 0 7.5-3.358 7.5-7.5s-3.358-7.5-7.5-7.5z"/><path d="m355.482 82.223c-4.142 0-7.5 3.358-7.5 7.5s3.358 7.5 7.5 7.5h73.777c4.142 0 7.5-3.358 7.5-7.5s-3.358-7.5-7.5-7.5z"/></g></g></svg>